<svg width="9" height="12" viewBox="0 0 9 12" fill="none" xmlns="http://www.w3.org/2000/svg">
<g clip-path="url(#clip0_24_213)">
<path fill-rule="evenodd" clip-rule="evenodd" d="M7.18453 5.36011C7.46883 2.81228 5.98172 1.02026 3.19406 0C4.90148 2.21744 1.73883 4.61979 1.56445 6.92288C1.1557 6.22479 0.923673 5.29253 0.877735 4.04724C-1.21242 7.33047 0.520313 12.6962 5.12039 11.9251C5.54273 11.8545 5.94961 11.721 6.32063 11.5223C7.99781 10.625 9 8.67102 9 6.80485C9 5.61541 8.49187 4.55338 7.83422 3.70958C7.74633 4.53625 7.5593 5.15291 7.18453 5.36011Z" fill="#E20919"/>
<path fill-rule="evenodd" clip-rule="evenodd" d="M5.73844 8.74048C6.25008 7.38748 6.1793 5.20313 4.74633 4.43676C4.73625 6.94822 2.31891 7.26758 2.76727 9.94869C2.35383 9.47024 2.14594 8.70457 2.10867 8.10082C1.45336 9.63496 1.96711 10.8631 2.90109 11.4885C5.74055 13.3891 8.18578 9.53547 6.55992 7.42292C6.51117 7.89386 5.94727 8.62245 5.73844 8.74048Z" fill="url(#paint0_linear_24_213)"/>
</g>
<defs>
<linearGradient id="paint0_linear_24_213" x1="5.1675" y1="6.72202" x2="5.1675" y2="11.7492" gradientUnits="userSpaceOnUse">
<stop stop-color="#FB6404"/>
<stop offset="1" stop-color="#F2BE10"/>
</linearGradient>
<clipPath id="clip0_24_213">
<rect width="9" height="12" fill="white" transform="matrix(-1 0 0 1 9 0)"/>
</clipPath>
</defs>
</svg>
